<?xml version="1.0" encoding="UTF-8" standalone="no"?>
<svg
   xmlns:dc="http://purl.org/dc/elements/1.1/"
   xmlns:cc="http://creativecommons.org/ns#"
   xmlns:rdf="http://www.w3.org/1999/02/22-rdf-syntax-ns#"
   xmlns:svg="http://www.w3.org/2000/svg"
   xmlns="http://www.w3.org/2000/svg"
   xmlns:xlink="http://www.w3.org/1999/xlink"
   xmlns:sodipodi="http://sodipodi.sourceforge.net/DTD/sodipodi-0.dtd"
   xmlns:inkscape="http://www.inkscape.org/namespaces/inkscape"
   version="1.1"
   preserveAspectRatio="xMidYMid meet"
   viewBox="0 0 640 640"
   width="680"
   height="680"
   id="svg56"
   sodipodi:docname="turret.svg"
   inkscape:version="0.92.4 (5da689c313, 2019-01-14)">
  <metadata
     id="metadata60">
    <rdf:RDF>
      <cc:Work
         rdf:about="">
        <dc:format>image/svg+xml</dc:format>
        <dc:type
           rdf:resource="http://purl.org/dc/dcmitype/StillImage" />
        <dc:title />
      </cc:Work>
    </rdf:RDF>
  </metadata>
  <sodipodi:namedview
     pagecolor="#ffffff"
     bordercolor="#666666"
     borderopacity="1"
     objecttolerance="10"
     gridtolerance="10"
     guidetolerance="10"
     inkscape:pageopacity="0"
     inkscape:pageshadow="2"
     inkscape:window-width="1920"
     inkscape:window-height="1048"
     id="namedview58"
     showgrid="false"
     inkscape:zoom="0.62225397"
     inkscape:cx="-606.12675"
     inkscape:cy="758.50519"
     inkscape:window-x="1920"
     inkscape:window-y="0"
     inkscape:window-maximized="1"
     inkscape:current-layer="svg56"
     inkscape:document-rotation="0" />
  <defs
     id="defs18">
    <path
       d="M-17.15 -9.33L664.27 -9.33L664.27 649.33L-17.15 649.33L-17.15 -9.33Z"
       id="b104BJJvCf" />
    <path
       d="M556.82 358.41C562.34 358.41 566.82 362.89 566.82 368.41C566.82 412.64 566.82 535.35 566.82 579.58C566.82 585.1 562.34 589.58 556.82 589.58C460.38 589.58 181.05 589.58 84.6 589.58C79.08 589.58 74.6 585.1 74.6 579.58C74.6 535.35 74.6 412.64 74.6 368.41C74.6 362.89 79.08 358.41 84.6 358.41C181.05 358.41 460.38 358.41 556.82 358.41Z"
       id="k1heXi89yy" />
    <path
       d="M217.53 127.95C223.05 127.95 227.53 132.43 227.53 137.95C227.53 212.2 227.53 424.95 227.53 499.21C227.53 504.73 223.05 509.21 217.53 509.21C197.91 509.21 149.04 509.21 129.41 509.21C123.89 509.21 119.41 504.73 119.41 499.21C119.41 424.95 119.41 212.2 119.41 137.95C119.41 132.43 123.89 127.95 129.41 127.95C149.04 127.95 197.91 127.95 217.53 127.95Z"
       id="e2iU93TgbG" />
    <path
       d="M227.53 134.71C227.53 146.29 203.31 155.69 173.47 155.69C143.64 155.69 119.41 146.29 119.41 134.71C119.41 123.13 143.64 113.72 173.47 113.72C203.31 113.72 227.53 123.13 227.53 134.71Z"
       id="b1I8YlPZq0" />
    <mask
       id="maska5bwQdAqgQ"
       x="117.41"
       y="111.72"
       width="112.12"
       height="45.97"
       maskUnits="userSpaceOnUse">
      <rect
         x="117.41"
         y="111.72"
         width="112.12"
         height="45.97"
         fill="white"
         id="rect6" />
      <use
         xlink:href="#b1I8YlPZq0"
         opacity="1"
         fill="black"
         id="use8" />
    </mask>
    <path
       d="M492.09 127.95C497.61 127.95 502.09 132.43 502.09 137.95C502.09 212.2 502.09 424.95 502.09 499.21C502.09 504.73 497.61 509.21 492.09 509.21C473.18 509.21 426.44 509.21 407.53 509.21C402.01 509.21 397.53 504.73 397.53 499.21C397.53 424.95 397.53 212.2 397.53 137.95C397.53 132.43 402.01 127.95 407.53 127.95C426.44 127.95 473.18 127.95 492.09 127.95Z"
       id="d1g9Jy4sgY" />
    <path
       d="M502.09 134.71C502.09 146.29 478.67 155.69 449.81 155.69C420.96 155.69 397.53 146.29 397.53 134.71C397.53 123.13 420.96 113.72 449.81 113.72C478.67 113.72 502.09 123.13 502.09 134.71Z"
       id="agmG6rvAT" />
    <mask
       id="maskbUNNCqXFH"
       x="395.53"
       y="111.72"
       width="108.56"
       height="45.97"
       maskUnits="userSpaceOnUse">
      <rect
         x="395.53"
         y="111.72"
         width="108.56"
         height="45.97"
         fill="white"
         id="rect13" />
      <use
         xlink:href="#agmG6rvAT"
         opacity="1"
         fill="black"
         id="use15" />
    </mask>
  </defs>
  <g
     id="g54"
     transform="matrix(0.96683914,0,0,1.0002483,16.581291,-9.4912286)"
     style="fill:#000060;fill-opacity:1">
    <g
       id="g52"
       style="fill:#000060;fill-opacity:1">
      <g
         id="g22"
         style="fill:#000060;fill-opacity:1">
        <use
           xlink:href="#b104BJJvCf"
           id="use20"
           x="0"
           y="0"
           width="100%"
           height="100%"
           style="opacity:1;fill:#000060;fill-opacity:1" />
      </g>
      <g
         id="g26"
         style="fill:#000060;fill-opacity:1">
        <use
           xlink:href="#k1heXi89yy"
           id="use24"
           x="0"
           y="0"
           width="100%"
           height="100%"
           style="opacity:1;fill:#000060;fill-opacity:1" />
      </g>
      <g
         id="g30"
         style="fill:#000060;fill-opacity:1">
        <use
           xlink:href="#e2iU93TgbG"
           id="use28"
           x="0"
           y="0"
           width="100%"
           height="100%"
           style="opacity:1;fill:#000060;fill-opacity:1" />
      </g>
      <g
         id="g38"
         style="fill:#000060;fill-opacity:1">
        <use
           xlink:href="#b1I8YlPZq0"
           id="use32"
           x="0"
           y="0"
           width="100%"
           height="100%"
           style="opacity:1;fill:#000060;fill-opacity:1" />
        <g
           mask="url(#maska5bwQdAqgQ)"
           id="g36"
           style="fill:#000060;fill-opacity:1">
          <use
             xlink:href="#b1I8YlPZq0"
             id="use34"
             x="0"
             y="0"
             width="100%"
             height="100%"
             style="opacity:1;fill:#000060;fill-opacity:1;stroke:#131d3c;stroke-width:2;stroke-opacity:1" />
        </g>
      </g>
      <g
         id="g42"
         style="fill:#000060;fill-opacity:1">
        <use
           xlink:href="#d1g9Jy4sgY"
           id="use40"
           x="0"
           y="0"
           width="100%"
           height="100%"
           style="opacity:1;fill:#000060;fill-opacity:1" />
      </g>
      <g
         id="g50"
         style="fill:#000060;fill-opacity:1">
        <use
           xlink:href="#agmG6rvAT"
           id="use44"
           x="0"
           y="0"
           width="100%"
           height="100%"
           style="opacity:1;fill:#000060;fill-opacity:1" />
        <g
           mask="url(#maskbUNNCqXFH)"
           id="g48"
           style="fill:#000060;fill-opacity:1">
          <use
             xlink:href="#agmG6rvAT"
             id="use46"
             x="0"
             y="0"
             width="100%"
             height="100%"
             style="opacity:1;fill:#000060;fill-opacity:1;stroke:#131d3c;stroke-width:2;stroke-opacity:1" />
        </g>
      </g>
    </g>
  </g>
  <rect
     style="fill:#0000d6;fill-rule:evenodd;stroke-width:0.94117498;fill-opacity:1"
     id="rect62"
     width="583.52942"
     height="583.52942"
     x="37.64706"
     y="18.823523" />
  <rect
     style="fill:#007fed;fill-rule:evenodd;stroke-width:1.01926005;fill-opacity:1"
     id="rect68"
     width="112.94118"
     height="527.05884"
     x="272.94116"
     y="47.058807" />
  <rect
     style="fill:#007fed;fill-rule:evenodd;stroke-width:1.01926005;fill-opacity:1"
     id="rect68-5"
     width="527.05884"
     height="112.94118"
     x="65.882355"
     y="254.11765" />
  <circle
     style="fill:#00ffff;fill-rule:evenodd;stroke-width:3.76470588;stroke:#003b95;stroke-opacity:1;stroke-miterlimit:4;stroke-dasharray:none;fill-opacity:1"
     id="path87"
     cx="329.41177"
     cy="310.58823"
     inkscape:transform-center-y="2.8336714"
     inkscape:transform-center-x="-1.447905e-05"
     r="131.76471" />
  <ellipse
     style="fill:#00ccff;fill-opacity:1;fill-rule:evenodd;stroke-width:1.01753998"
     id="path105"
     ry="28.235294"
     rx="56.470589"
     cy="47.058823"
     cx="329.41177" />
  <ellipse
     style="fill:#00ccff;fill-opacity:1;fill-rule:evenodd;stroke-width:1.01753998"
     id="path105-1"
     ry="28.235294"
     rx="56.470589"
     cy="574.11768"
     cx="329.41177" />
  <ellipse
     style="fill:#00ccff;fill-opacity:1;fill-rule:evenodd;stroke-width:1.01753998"
     id="path105-3"
     ry="56.470589"
     rx="28.235294"
     cy="310.58823"
     cx="65.882355" />
  <ellipse
     style="fill:#00ccff;fill-opacity:1;fill-rule:evenodd;stroke-width:1.01752996"
     id="path105-0"
     ry="56.470589"
     rx="28.235294"
     cy="310.58823"
     cx="592.94116" />
  <circle
     style="fill:#004cbe;fill-opacity:1;stroke-width:9.41176471;stroke:none;stroke-opacity:1;stroke-miterlimit:4;stroke-dasharray:none"
     id="path4552"
     cx="329.41177"
     cy="310.58823"
     r="94.117645" />
</svg>
